<?xml version="1.0" encoding="UTF-8" standalone="no"?><!DOCTYPE svg PUBLIC "-//W3C//DTD SVG 1.1//EN" "http://www.w3.org/Graphics/SVG/1.1/DTD/svg11.dtd"><svg width="100%" height="100%" viewBox="0 0 1703 1831" version="1.1" xmlns="http://www.w3.org/2000/svg" xmlns:xlink="http://www.w3.org/1999/xlink" xml:space="preserve" xmlns:serif="http://www.serif.com/" style="fill-rule:evenodd;clip-rule:evenodd;stroke-linejoin:round;stroke-miterlimit:2;"><path d="M111.379,1395.64c-4.517,3.27 -11.594,7.231 -21.231,11.882c-1.576,0.751 -2.831,1.347 -3.764,1.788l-53.372,25.868l-33.012,-41.815l102.59,-144.286l37.975,48.101l-50.489,56.867c-4.444,4.987 -8.614,9.413 -12.512,13.279c-3.899,3.866 -7.683,7.347 -11.352,10.441l0.863,1.093c5.38,-4.05 13.077,-8.599 23.092,-13.646c0.885,-0.502 1.619,-0.884 2.201,-1.146l72.219,-36.46l26.684,33.799l-52.317,61.858c-0.316,0.348 -0.828,0.949 -1.534,1.803c-7.295,8.618 -13.506,15.049 -18.633,19.294l0.863,1.094c3.862,-2.852 8.125,-5.725 12.79,-8.619c4.666,-2.895 9.939,-5.924 15.821,-9.089l67.032,-35.913l37.975,48.101l-164.156,66.304l-33.012,-41.816l37.548,-45.911c0.646,-0.805 1.547,-1.911 2.704,-3.318c6.7,-8.247 12.165,-14.188 16.394,-17.822l-1.367,-1.731Z" style="fill:#5ccb66;fill-rule:nonzero;"/><path d="M129.87,1527.79l45.943,-23.113c2.587,10.35 5.537,18.838 8.851,25.463c3.314,6.626 7.219,11.893 11.715,15.803c3.153,2.742 6.155,4.302 9.006,4.679c2.851,0.377 5.165,-0.456 6.942,-2.5c3.098,-3.562 0.934,-10.212 -6.492,-19.951c-2.36,-3.181 -4.206,-5.658 -5.536,-7.43c-7.545,-10.663 -11.268,-21.182 -11.168,-31.555c0.099,-10.374 4.008,-19.998 11.727,-28.873c11.983,-13.78 26.667,-20.7 44.05,-20.76c17.382,-0.06 34.073,6.867 50.072,20.78c7.357,6.398 13.759,13.658 19.207,21.78c5.448,8.121 10.091,17.287 13.929,27.495l-43.185,21.358c-1.594,-7.129 -3.876,-13.497 -6.845,-19.104c-2.968,-5.607 -6.555,-10.239 -10.759,-13.895c-3.211,-2.792 -6.163,-4.41 -8.854,-4.853c-2.691,-0.444 -4.874,0.298 -6.55,2.225c-3.148,3.62 0.478,12.363 10.879,26.227c1.637,2.245 2.909,3.966 3.815,5.164c7.091,9.653 10.51,19.754 10.258,30.302c-0.252,10.549 -4.161,20.173 -11.727,28.873c-12.339,14.189 -27.542,21.323 -45.609,21.404c-18.067,0.08 -35.304,-7.014 -51.712,-21.283c-8.408,-7.312 -15.775,-15.821 -22.101,-25.527c-6.326,-9.706 -11.611,-20.609 -15.856,-32.709Z" style="fill:#5ccb66;fill-rule:nonzero;"/><path d="M242.639,1643.22l89.099,-144.695l62.167,38.281c21.876,13.47 35.274,27.536 40.195,42.198c4.921,14.662 1.741,31.152 -9.538,49.469c-10.508,17.066 -22.733,26.736 -36.675,29.011c-13.941,2.275 -30.795,-2.674 -50.562,-14.846l-16.308,-10.041l-26.292,42.697l-52.086,-32.074Zm116.613,-72.274l-14.85,24.116l8.104,4.99c4.942,3.043 9.37,4.339 13.284,3.886c3.913,-0.453 7.047,-2.59 9.4,-6.411c2.353,-3.822 2.838,-7.635 1.456,-11.44c-1.383,-3.805 -4.48,-7.189 -9.29,-10.15l-8.104,-4.991Z" style="fill:#5ccb66;fill-rule:nonzero;"/><path d="M485.037,1712.77c8.004,3.116 15.5,2.9 22.487,-0.649c6.987,-3.55 12.235,-9.831 15.744,-18.844c3.537,-9.086 3.946,-17.334 1.227,-24.746c-2.72,-7.411 -8.082,-12.675 -16.086,-15.791c-8.004,-3.116 -15.538,-2.853 -22.603,0.791c-7.065,3.643 -12.353,9.971 -15.862,18.985c-3.509,9.013 -3.872,17.196 -1.088,24.55c2.784,7.353 8.177,12.588 16.181,15.704Zm96.314,3.121c-4.52,11.609 -10.779,21.607 -18.778,29.994c-7.998,8.386 -17.493,14.966 -28.485,19.737c-10.936,4.627 -22.378,6.982 -34.326,7.063c-11.947,0.082 -23.762,-2.151 -35.444,-6.7c-11.825,-4.604 -22.094,-10.968 -30.805,-19.093c-8.711,-8.125 -15.539,-17.675 -20.482,-28.651c-4.884,-10.704 -7.408,-21.817 -7.572,-33.34c-0.164,-11.523 2.042,-23.162 6.619,-34.915c4.576,-11.754 10.834,-21.856 18.774,-30.307c7.941,-8.451 17.329,-14.968 28.164,-19.551c10.964,-4.699 22.395,-7.079 34.293,-7.138c11.897,-0.06 23.795,2.227 35.693,6.859c11.898,4.632 22.209,10.993 30.934,19.081c8.726,8.089 15.574,17.585 20.546,28.489c4.784,10.748 7.262,21.926 7.433,33.536c0.172,11.609 -2.016,23.254 -6.564,34.936Zm-0.18,-155.02l-48.419,24.868l-17.955,-6.99l34.25,-30.385l32.124,12.507Z" style="fill:#5ccb66;fill-rule:nonzero;"/><path d="M580.144,1799.47l10.779,-52.175l-14.536,5.531l-11.333,-32.92l34.417,-13.987l15.053,-72.862l59.791,12.353l-8.314,40.239l24.239,-10.045l14.268,33.052l-47.266,19.392l-6.576,31.827l58.427,12.071l-10.733,51.947l-118.216,-24.423Z" style="fill:#5ccb66;fill-rule:nonzero;"/><path d="M717.149,1825.03l7.824,-169.747l61.104,2.817l-5.285,114.672l59.365,2.736l-2.539,55.075l-120.469,-5.553Z" style="fill:#5ccb66;fill-rule:nonzero;"/><path d="M934.646,1769.54c8.527,-1.025 15.036,-4.749 19.525,-11.173c4.488,-6.423 6.156,-14.437 5.002,-24.041c-1.164,-9.68 -4.691,-17.147 -10.584,-22.401c-5.892,-5.254 -13.102,-7.369 -21.63,-6.344c-8.528,1.025 -15.048,4.809 -19.561,11.353c-4.514,6.543 -6.193,14.617 -5.039,24.22c1.154,9.604 4.691,16.992 10.613,22.164c5.921,5.173 13.146,7.247 21.674,6.222Zm86.411,-42.65c1.487,12.369 0.68,24.137 -2.421,35.304c-3.1,11.167 -8.373,21.445 -15.817,30.835c-7.463,9.236 -16.444,16.706 -26.943,22.41c-10.498,5.704 -21.971,9.304 -34.417,10.8c-12.599,1.514 -24.656,0.742 -36.168,-2.317c-11.513,-3.059 -22.036,-8.263 -31.57,-15.613c-9.353,-7.137 -16.818,-15.748 -22.394,-25.834c-5.577,-10.085 -9.118,-21.389 -10.623,-33.912c-1.504,-12.523 -0.747,-24.382 2.272,-35.578c3.019,-11.196 8.226,-21.369 15.621,-30.519c7.454,-9.313 16.414,-16.8 26.878,-22.461c10.465,-5.661 22.036,-9.254 34.712,-10.777c12.677,-1.523 24.769,-0.775 36.277,2.246c11.508,3.02 22.024,8.167 31.549,15.439c9.286,7.224 16.74,15.914 22.365,26.071c5.624,10.158 9.184,21.459 10.679,33.906Z" style="fill:#5ccb66;fill-rule:nonzero;"/><path d="M1056.71,1804.87l-54.238,-161.039l56.759,-19.117l23.118,68.64l13.622,-81.014l65.56,-22.08l-21.909,95.684l82.966,63.058l-70.069,23.599l-61.723,-54.167l22.673,67.319l-56.759,19.117Z" style="fill:#5ccb66;fill-rule:nonzero;"/><path d="M1250.99,1662.75l22.379,-12.055l-13.736,-14.486c-6.872,-7.373 -11.964,-13.155 -15.277,-17.348c-3.313,-4.192 -6.172,-8.277 -8.578,-12.254l-0.92,0.495c1.997,4.198 3.835,8.833 5.513,13.906c1.678,5.073 3.704,12.507 6.08,22.302l4.539,19.44Zm-42.045,92.785l-27.242,-178.337l59.883,-32.256l132.905,121.422l-57.839,31.155l-14.931,-16.216l-40.569,21.853l5.53,21.279l-57.737,31.1Z" style="fill:#5ccb66;fill-rule:nonzero;"/><path d="M1390.23,1650.71l-68.498,-91.538l-27.229,20.375l-33.311,-44.514l103.341,-77.33l33.31,44.514l-27.229,20.376l68.498,91.538l-48.882,36.579Z" style="fill:#5ccb66;fill-rule:nonzero;"/><path d="M1502.56,1483.99c5.906,-6.237 8.533,-13.26 7.883,-21.069c-0.651,-7.81 -4.488,-15.04 -11.511,-21.691c-7.079,-6.704 -14.564,-10.195 -22.453,-10.473c-7.89,-0.278 -14.788,2.702 -20.694,8.938c-5.906,6.237 -8.504,13.314 -7.796,21.231c0.708,7.918 4.574,15.202 11.597,21.853c7.023,6.651 14.465,10.074 22.325,10.271c7.86,0.196 14.743,-2.824 20.649,-9.06Zm39.23,-88.017c9.046,8.566 15.943,18.135 20.692,28.707c4.749,10.571 7.259,21.847 7.531,33.827c0.159,11.873 -1.978,23.358 -6.411,34.453c-4.432,11.096 -10.958,21.194 -19.578,30.296c-8.726,9.215 -18.494,16.323 -29.305,21.324c-10.811,5.002 -22.232,7.721 -34.262,8.158c-11.755,0.485 -22.999,-1.371 -33.732,-5.567c-10.734,-4.196 -20.679,-10.631 -29.837,-19.304c-9.159,-8.672 -16.153,-18.28 -20.983,-28.822c-4.83,-10.542 -7.323,-21.695 -7.479,-33.459c-0.216,-11.927 1.894,-23.41 6.328,-34.451c4.434,-11.041 11.04,-21.196 19.82,-30.467c8.779,-9.27 18.56,-16.42 29.343,-21.448c10.783,-5.028 22.161,-7.788 34.135,-8.278c11.758,-0.375 23.045,1.548 33.861,5.77c10.816,4.221 20.775,10.641 29.877,19.261Z" style="fill:#5ccb66;fill-rule:nonzero;"/><path d="M1543.73,1314.62l28.081,17.705l5.076,-8.051c3.095,-4.91 4.284,-9.443 3.567,-13.6c-0.718,-4.157 -3.302,-7.639 -7.753,-10.446c-4.582,-2.889 -8.936,-3.782 -13.062,-2.678c-4.126,1.103 -7.737,4.109 -10.832,9.018l-5.077,8.052Zm74.782,117.954l-143.74,-90.631l40.981,-64.997c11.886,-18.851 25.123,-30.631 39.709,-35.339c14.586,-4.707 29.701,-2.129 45.344,7.734c10.212,6.439 17.044,14.246 20.498,23.421c3.454,9.176 3.054,18.369 -1.198,27.58l82.722,-1.494l-36.524,57.929l-63.271,-4.766l47.423,29.901l-31.944,50.662Z" style="fill:#5ccb66;fill-rule:nonzero;"/><circle cx="838.193" cy="791.667" r="791.667" style="fill:#5ccb66;"/><path d="M914.631,714.268c19.971,-0 36.15,-26.244 36.15,-58.575c-0,-32.357 -16.179,-58.588 -36.15,-58.588c-19.958,0 -36.137,26.231 -36.137,58.588c0,32.344 16.179,58.575 36.137,58.575Zm-159.545,-0c19.958,-0 36.136,-26.244 36.136,-58.575c0,-32.357 -16.178,-58.588 -36.136,-58.588c-19.959,0 -36.164,26.231 -36.164,58.588c0.014,32.344 16.205,58.575 36.164,58.575Zm75.336,106.341c115.983,-0.199 193.136,-67.844 194.091,-68.573c4.615,-4.032 5.106,-10.981 1.061,-15.569c-4.018,-4.602 -10.967,-5.053 -15.542,-1.061c-0.027,-0.026 -4.138,3.66 -12.598,9.575c-8.421,5.914 -20.873,13.858 -36.721,21.828c-31.667,15.913 -76.729,31.76 -130.291,31.76c-79.62,0.093 -139.096,-42.064 -163.616,-63.097c-8.142,-6.962 -12.121,-11.311 -12.134,-11.311c-4.164,-4.456 -11.126,-4.721 -15.582,-0.571c-4.469,4.138 -4.708,11.1 -0.597,15.569c0.968,0.769 75.032,81.158 191.929,81.45Zm353.543,-22.199c13.553,-0 24.56,-17.81 24.56,-39.77c0,-21.987 -10.993,-39.797 -24.56,-39.797c-13.592,-0 -24.586,17.81 -24.586,39.797c0.013,21.96 10.994,39.77 24.586,39.77Zm108.371,-0c13.553,-0 24.546,-17.81 24.546,-39.77c0,-21.987 -10.98,-39.797 -24.546,-39.797c-13.54,-0 -24.573,17.81 -24.573,39.797c0.013,21.96 11.046,39.77 24.573,39.77Zm-51.162,72.247c79.382,-0.199 129.734,-54.809 130.358,-55.326c2.798,-3.037 2.639,-7.771 -0.385,-10.582c-3.037,-2.825 -7.784,-2.652 -10.582,0.384c-0.027,0 -2.719,2.944 -8.249,7.665c-16.669,14.296 -57.076,42.927 -111.142,42.847c-36.402,0 -67.035,-10.755 -88.505,-21.549c-10.768,-5.424 -19.229,-10.795 -24.958,-14.813c-5.768,-4.031 -8.54,-6.524 -8.54,-6.498c-3.143,-2.732 -7.877,-2.427 -10.582,0.716c-2.745,3.103 -2.414,7.838 0.716,10.569c0.663,0.504 53.058,46.454 131.869,46.587Zm152.955,1.034c51.997,-44.584 85.017,-110.744 85.044,-184.662c-0.027,-134.375 -108.941,-243.263 -243.303,-243.289c-18.553,0.013 -36.614,2.161 -53.973,6.113c-43.431,-148.87 -180.817,-257.665 -343.69,-257.678c-162.967,0.013 -300.406,108.901 -343.783,257.851c-17.372,-3.992 -35.368,-6.286 -53.947,-6.286c-134.349,0.039 -243.236,108.927 -243.263,243.289c0.013,75.284 34.214,142.571 87.948,187.195c-69.104,57.209 -85.945,155.554 -86.051,262.784c0.729,10.317 6.445,13.274 8.885,15.224c5.171,3.249 9.826,4.694 15.303,6.511c8.05,2.533 17.226,4.893 23.91,7.041c1.074,0.332 2.095,0.677 2.984,0.995c3.196,39.28 22.57,66.081 51.188,77.949c29.798,12.85 66.399,13.368 108.185,13.513c10.264,0 20.886,-0.066 31.787,-0.066c37.86,-0.079 72.193,0 102.031,-5.026c3.912,1.233 7.532,2.427 10.278,3.395c3.222,29.387 12.293,53.986 27.238,73.361c16.669,21.748 39.863,35.765 65.802,44.451c52.01,17.227 116.791,16.55 190.232,16.723c16.046,-0 31.681,0.079 46.785,0.079c61.532,-0.212 115.359,-0.968 159.24,-19.892c42.171,-17.451 70.643,-56.903 75.324,-114.709c1.379,-0.49 2.838,-1.008 4.442,-1.498c1.525,-0.491 3.289,-1.008 4.986,-1.512c23.035,4.204 48.881,4.615 77.247,4.708c10.251,-0 20.86,-0.067 31.774,-0.067c49.888,-0.106 93.889,0.372 129.217,-11.338c17.637,-5.875 33.405,-15.423 44.703,-30.196c10.171,-13.155 16.298,-29.864 18.513,-49.848c4.588,-1.592 12.372,-4.032 19.242,-5.955c5.45,-1.631 10.715,-3.262 15.555,-5.331c2.467,-1.074 4.774,-2.175 7.493,-4.19c2.334,-1.95 7.121,-5.57 7.519,-14.296c-0.053,-58.919 -3.952,-114.47 -18.659,-162.661c-12.439,-40.845 -33.378,-76.637 -66.186,-102.682Zm-187.779,-176.108c95.945,21.443 186.333,-1.021 186.333,-1.021c0,-0 25.515,47.568 44.2,63.653c-13.567,38.206 -37.768,71.266 -68.905,95.945l-0.823,-0.491l-8.009,5.835c-35.116,25.488 -77.95,40.672 -124.549,40.792c-1.26,-0.014 -2.493,-0.053 -3.714,-0.093c-2.506,-0.027 -4.972,-0.173 -7.452,-0.292c-61.4,-3.634 -115.625,-33.232 -152.225,-77.883c42.674,-36.641 76.662,-83.068 98.358,-135.9c11.338,3.288 23.512,6.484 36.786,9.455Zm92.868,226.328c-2.281,4.204 -5.251,8.488 -9.442,12.373c-9.216,8.514 -24.188,16.285 -52.342,16.364c-38.483,-0.305 -53.402,-13.301 -61.717,-24.904c-0.716,-1.074 -1.286,-2.095 -1.883,-3.156c15.661,4.031 31.946,6.498 48.668,7.32c2.016,0.119 4.085,0.159 6.14,0.199c1.791,0.04 3.581,0.199 5.371,0.199c0.239,-0 0.385,-0.04 0.637,-0.04c0.397,0.013 0.822,0.04 1.233,0.04c21.881,-0.014 43.112,-2.958 63.335,-8.395Zm-159.014,-2.718c-1.817,-3.567 -3.793,-6.989 -5.729,-10.463c1.273,0.557 2.48,1.22 3.739,1.763c0.385,2.427 1.088,5.451 1.99,8.7Zm-532.808,-357.813c-0,-0 133.009,33.073 274.254,1.498c141.245,-31.561 207.975,-79.859 207.975,-79.859l61.519,91.595c-12.2,155.978 -137.863,279.785 -294.624,289.054c-3.646,0.173 -7.28,0.358 -10.94,0.425c-1.857,0.053 -3.647,0.145 -5.477,0.172c-68.6,-0.239 -131.67,-22.571 -183.323,-60.086l-11.815,-8.58l-1.234,0.742c-45.857,-36.322 -81.463,-85.017 -101.395,-141.231c27.491,-23.725 65.06,-93.73 65.06,-93.73Zm322.14,335.667c-0.835,1.564 -1.724,3.089 -2.784,4.641c-12.254,17.08 -34.188,36.19 -90.853,36.694c-41.441,-0.159 -63.468,-11.591 -77.061,-24.122c-6.153,-5.689 -10.542,-11.988 -13.871,-18.195c29.719,7.997 60.988,12.333 93.226,12.333c0.624,0 1.22,-0.013 1.83,-0.066c0.305,-0 0.597,0.066 0.915,0.066c2.666,0 5.265,-0.238 7.931,-0.278c3.01,-0.08 6.033,-0.133 9.044,-0.265c24.613,-1.274 48.549,-4.881 71.623,-10.808Zm-701.649,-193.494l41.786,-62.222c0,0 45.327,32.808 141.272,54.252c37.264,8.328 73.493,9.959 104.073,8.925c21.643,45.194 52.435,85.176 90.044,117.454c-0.358,0.451 -0.756,0.888 -1.127,1.339c-11.657,9.363 -22.319,19.547 -31.986,30.501l-0.213,-0.133l-8.009,5.835c-35.089,25.488 -77.936,40.672 -124.536,40.792c-1.247,-0.014 -2.48,-0.053 -3.713,-0.093c-2.493,-0.027 -4.973,-0.173 -7.44,-0.292c-106.487,-6.286 -191.862,-90.401 -200.151,-196.358Zm275.912,218.358c-2.267,4.204 -5.238,8.488 -9.402,12.373c-9.243,8.514 -24.215,16.285 -52.355,16.364c-38.484,-0.305 -53.389,-13.301 -61.691,-24.904c-0.729,-1.074 -1.326,-2.095 -1.923,-3.156c15.675,4.031 31.933,6.498 48.669,7.32c2.015,0.119 4.097,0.159 6.126,0.199c1.817,0.04 3.594,0.199 5.384,0.199c0.226,-0 0.412,-0.04 0.637,-0.04c0.411,0.013 0.822,0.04 1.233,0.04c21.921,-0.014 43.152,-2.958 63.322,-8.395Zm4.019,51.334c-21.643,70.948 -27.411,152.703 -27.451,239.471c0.305,7.108 2.639,11.776 5.225,15.144c-13.832,0.371 -28.618,0.424 -44.226,0.424c-11.007,0 -21.629,0.04 -31.787,0.04c-41.269,0.133 -75.231,-1.538 -96.144,-10.98c-20.329,-9.641 -31.256,-22.571 -33.736,-59.437c-6.79,-52.289 -0.929,-152.875 -0.929,-152.875l-18.3,133.395l1.021,0.663c-7.28,-2.759 -15.078,-4.589 -22.783,-6.976c-3.607,-0.994 -7.015,-2.068 -9.64,-2.997c0.809,-104.71 20.196,-191.146 80.296,-236.075c10.609,6.683 21.828,12.492 33.445,17.451c1.167,7.48 4.27,19.547 12.757,32.119c13.129,19.852 40.712,38.365 86.463,38.02l1.353,-0c31.919,-0 54.689,-9.906 69.674,-22.982c-1.804,5.159 -3.634,10.317 -5.238,15.595Zm627.386,232.23c-11.325,3.488 -22.836,6.18 -33.537,10.251l1.472,-0.995l-26.934,-196.358c0,0 8.673,148.061 -1.3,225.069c-3.66,54.238 -19.745,73.268 -49.663,87.471c-30.779,13.897 -80.813,16.391 -141.523,16.192c-14.972,-0 -30.607,-0.08 -46.785,-0.08c-54.981,0.027 -103.769,-0.146 -141.869,-6.326c-38.444,-6.206 -64.131,-17.876 -79.235,-37.675c-10.238,-13.327 -17.266,-31.84 -19.043,-59.808c-0.796,-8.553 -6.83,-224.843 -6.83,-224.843l-26.734,194.86c-1.95,-0.663 -3.872,-1.326 -5.915,-1.936c-11.616,-3.567 -24.652,-7.135 -32.821,-10.052c0.517,-80.283 6.843,-154.148 25.514,-215.083c18.022,-58.442 46.388,-104.286 91.861,-136.471c16.138,10.622 33.179,19.905 50.962,27.835c1.791,11.67 6.26,29.055 17.797,47.237c18.473,29.718 58.071,57.699 123.316,57.699l1.975,-0c67.314,0.53 107.96,-26.761 127.268,-55.962c12.505,-18.513 17.067,-36.203 18.791,-47.25c17.12,-7.36 33.644,-15.887 49.239,-25.7c88.465,66.133 117.017,193.375 118.223,347.522c-3.898,1.353 -8.911,2.891 -14.229,4.403Zm291.468,-69.409c-1.353,0.425 -2.666,0.862 -3.992,1.313l-18.168,-132.333c0,-0 -4.111,146.934 -4.628,152.729c-1.247,18.99 -6.007,31.575 -12.983,40.632c-10.237,13.447 -27.663,21.377 -53.8,25.594c-25.886,4.191 -59.052,4.31 -96.396,4.297c-10.98,-0 -21.589,0.039 -31.774,0.039c-5.782,0.014 -11.351,-0.013 -16.841,-0.092c2.599,-3.329 4.88,-8.116 5.397,-15.516c-0.106,-98.968 -9.919,-192.778 -42.277,-269.772c13.195,19.719 40.672,38.02 86.171,37.688l1.366,0c44.319,0 71.239,-19.003 83.758,-39.226c7.824,-12.32 10.874,-24.162 12.081,-32.066c12.081,-5.384 23.671,-11.696 34.612,-18.924c30.872,21.855 50.14,53.005 62.407,92.696c12.691,41.415 17.001,91.595 17.332,146.138c-5.49,1.963 -14.349,4.376 -22.265,6.803Zm-929.715,-337.656c13.553,-0 24.559,-17.81 24.559,-39.77c0,-21.987 -10.993,-39.797 -24.559,-39.797c-13.58,-0 -24.56,17.81 -24.56,39.797c-0,21.96 10.967,39.77 24.56,39.77Zm-108.384,-0c13.54,-0 24.56,-17.81 24.56,-39.77c-0,-21.987 -11.007,-39.797 -24.56,-39.797c-13.553,-0 -24.56,17.81 -24.56,39.797c0,21.96 10.994,39.77 24.56,39.77Zm57.196,72.247c79.407,-0.199 129.734,-54.809 130.383,-55.326c2.785,-3.037 2.613,-7.771 -0.411,-10.582c-3.036,-2.825 -7.757,-2.652 -10.569,0.384c-0.026,0 -2.718,2.944 -8.235,7.665c-16.669,14.296 -57.089,42.927 -111.168,42.847c-36.389,0 -66.996,-10.755 -88.532,-21.549c-10.755,-5.424 -19.216,-10.795 -24.931,-14.813c-5.742,-4.031 -8.554,-6.524 -8.567,-6.498c-3.103,-2.732 -7.85,-2.427 -10.556,0.716c-2.718,3.117 -2.4,7.838 0.73,10.569c0.663,0.504 53.058,46.454 131.856,46.587Z" style="fill:#206816;fill-rule:nonzero;"/></svg>